<svg width="18" height="23" viewBox="0 0 18 23" fill="none" xmlns="http://www.w3.org/2000/svg">
<path d="M14.7973 12.3007C14.8081 11.466 15.0298 10.6476 15.4418 9.92167C15.8538 9.19572 16.4428 8.58578 17.1539 8.14861C16.7021 7.50345 16.1062 6.9725 15.4134 6.59795C14.7205 6.2234 13.9499 6.01555 13.1627 5.99093C11.4835 5.81467 9.85552 6.99576 8.99981 6.99576C8.12754 6.99576 6.81004 6.00843 5.39131 6.03762C4.47364 6.06726 3.57929 6.33412 2.79541 6.81218C2.01154 7.29023 1.36486 7.96319 0.918393 8.76548C-1.01561 12.1139 0.426982 17.035 2.27959 19.7416C3.20649 21.0669 4.28977 22.5474 5.70722 22.4949C7.09428 22.4373 7.61232 21.6104 9.28662 21.6104C10.9454 21.6104 11.4314 22.4949 12.8776 22.4615C14.366 22.4373 15.3038 21.1302 16.1981 19.7923C16.8641 18.848 17.3766 17.8043 17.7166 16.6998C16.8518 16.3341 16.1139 15.7219 15.5948 14.9396C15.0757 14.1573 14.7983 13.2395 14.7973 12.3007V12.3007Z" fill="white"/>
<path d="M12.0656 4.21088C12.8772 3.23667 13.277 1.98449 13.1802 0.720261C11.9403 0.850481 10.7951 1.44304 9.97259 2.37987C9.57045 2.83754 9.26245 3.36997 9.0662 3.94674C8.86996 4.52351 8.78931 5.1333 8.82888 5.74126C9.44902 5.74765 10.0625 5.61323 10.6232 5.34815C11.1838 5.08306 11.6771 4.69421 12.0656 4.21088Z" fill="white"/>
</svg>
